# xmcd CD database file
#
# Track frame offsets:
#	150
#	16451
#	30412
#	49052
#	64460
#	78737
#	94926
#	107736
#	126612
#	142890
#	164434
#	188353
#
# Disc length: 2695 seconds
#
# Revision: 0
# Processed by: cddbd v1.5.1PL2 Copyright (c) Steve Scherf et al.
# Submitted via: CDex 1.50
#
DISCID=a30a850c
DTITLE=Pete Smith - Call Of Mt Lindesay
DYEAR=2005
DGENRE=Country
TTITLE0=Call Of Mt Lindesay
TTITLE1=Mitchell He Could
TTITLE2=A Shadow On Mt Lindesay
TTITLE3=Bangtail Muster
TTITLE4=Just Think Back
TTITLE5=Home From Vietnam
TTITLE6=The Grave By The River
TTITLE7=A Mother's Prayer
TTITLE8=Out On The Warrego
TTITLE9=Namagoon
TTITLE10=Where The Roper Flows
TTITLE11=Sweet Heart Of Mine
EXTD=YEAR: 2005
EXTT0=
EXTT1=
EXTT2=
EXTT3=
EXTT4=
EXTT5=
EXTT6=
EXTT7=
EXTT8=
EXTT9=
EXTT10=
EXTT11=
PLAYORDER=
